<svg version="1.0" xmlns="http://www.w3.org/2000/svg" xmlns:xlink="http://www.w3.org/1999/xlink" viewBox="0 0 340 250" color-interpolation-filters="sRGB" style="margin:auto"><rect width="100%" height="100%" fill="#fff" class="background"/><rect width="100%" height="100%" fill="url(#watermark)" class="watermarklayer"/><g fill="#333" class="iconmbgsvg"><g transform="translate(203.017 82.003)" mask="url(#a)"><path class="image-rect" fill="none" d="M0 0h75v85.993H0z"/><svg filter="url(#b)" width="75" height="85.993" class="image-svg-svg primary" style="overflow:visible"><svg xmlns="http://www.w3.org/2000/svg" viewBox="12.226 0 166.804 191.254"><path d="M162.929 66.612a6 6 0 1 0-6.35 10.183c6.544 4.081 10.45 11.121 10.45 18.833s-3.906 14.752-10.45 18.833l-98.417 61.365c-6.943 4.329-15.359 4.542-22.512.573-7.154-3.97-11.425-11.225-11.425-19.406V34.262c0-8.181 4.271-15.436 11.425-19.406 7.153-3.969 15.569-3.756 22.512.573l57.292 35.723a6 6 0 1 0 6.35-10.183L64.512 5.247c-10.696-6.669-23.661-7-34.685-.883-11.021 6.116-17.601 17.293-17.601 29.898v122.73c0 12.605 6.58 23.782 17.602 29.898 5.25 2.913 10.939 4.364 16.616 4.364 6.241 0 12.467-1.754 18.068-5.247l98.417-61.365c10.082-6.287 16.101-17.133 16.101-29.015s-6.019-22.728-16.101-29.015z" fill="#000"/></svg></svg><defs><filter id="b"><feColorMatrix values="0 0 0 0 0.98046875 0 0 0 0 0.73046875 0 0 0 0 0.06640625 0 0 0 1 0" class="icon-fecolormatrix"/></filter><filter id="d"><feColorMatrix values="0 0 0 0 0.99609375 0 0 0 0 0.99609375 0 0 0 0 0.99609375 0 0 0 1 0" class="icon-fecolormatrix"/></filter></defs><path transform="translate(-6 -6)" style="pointer-events:none" fill="url(#c)" d="M0 0h87v97.993H0z"/></g><path d="M77.172 122.467q2.14.59 3.31 2.17 1.17 1.57 1.17 3.85 0 3.15-2.26 4.93-2.25 1.79-6.21 1.79h-9.03q-1.01 0-1.59-.56-.58-.56-.58-1.58v-20.4q0-1.02.58-1.58t1.59-.56h8.68q3.85 0 6.04 1.7t2.19 4.74q0 1.96-1.04 3.4-1.03 1.43-2.85 2.1zm-10.78-8.44v6.9h5.71q4.65 0 4.65-3.47 0-1.75-1.15-2.59-1.16-.84-3.5-.84h-5.71zm6.3 17.68q2.45 0 3.57-.88 1.12-.87 1.12-2.73 0-1.85-1.14-2.76-1.13-.91-3.55-.91h-6.3v7.28h6.3zm20.61 3.78q-2.62 0-4.6-1.09-1.97-1.08-3.06-3.11t-1.09-4.73q0-2.69 1.09-4.7 1.09-2.02 3.06-3.1 1.98-1.09 4.6-1.09 2.63 0 4.61 1.09 1.97 1.08 3.04 3.1 1.07 2.01 1.07 4.7 0 2.7-1.07 4.73-1.07 2.03-3.04 3.11-1.98 1.09-4.61 1.09zm-.03-3.4q2.14 0 3.25-1.4 1.13-1.4 1.13-4.13 0-2.69-1.13-4.11-1.11-1.42-3.22-1.42-2.09 0-3.23 1.42-1.14 1.42-1.14 4.11 0 2.73 1.12 4.13t3.22 1.4zm21.14.07q1.75.11 1.75 1.58 0 .84-.68 1.28-.68.44-1.94.37l-.95-.07q-5.88-.43-5.88-6.31v-7.63h-1.75q-.94 0-1.45-.42t-.51-1.22q0-.81.51-1.23.51-.42 1.45-.42h1.75v-3.22q0-.94.6-1.5.59-.56 1.61-.56.98 0 1.57.56.6.56.6 1.5v3.22h2.97q.95 0 1.45.42.51.42.51 1.23 0 .8-.51 1.22-.5.42-1.45.42h-2.97v7.95q0 2.59 2.38 2.76l.94.07zm19.6-9.69q2.14.59 3.31 2.17 1.17 1.57 1.17 3.85 0 3.15-2.26 4.93-2.25 1.79-6.21 1.79h-9.03q-1.01 0-1.59-.56-.58-.56-.58-1.58v-20.4q0-1.02.58-1.58t1.59-.56h8.68q3.85 0 6.04 1.7t2.19 4.74q0 1.96-1.04 3.4-1.03 1.43-2.85 2.1zm-10.78-8.44v6.9h5.71q4.65 0 4.65-3.47 0-1.75-1.15-2.59-1.16-.84-3.5-.84h-5.71zm6.3 17.68q2.45 0 3.57-.88 1.12-.87 1.12-2.73 0-1.85-1.14-2.76-1.13-.91-3.55-.91h-6.3v7.28h6.3zm14.98 3.71q-.94 0-1.56-.54-.61-.55-.61-1.56v-20.9q0-1.01.61-1.54.62-.52 1.56-.52.95 0 1.58.52.63.53.63 1.54v20.9q0 1.01-.63 1.56-.63.54-1.58.54zm14.53.07q-2.63 0-4.61-1.09-1.97-1.08-3.06-3.11-1.08-2.03-1.08-4.73 0-2.69 1.08-4.7 1.09-2.02 3.06-3.1 1.98-1.09 4.61-1.09 2.62 0 4.6 1.09 1.98 1.08 3.04 3.1 1.07 2.01 1.07 4.7 0 2.7-1.07 4.73-1.06 2.03-3.04 3.11-1.98 1.09-4.6 1.09zm-.04-3.4q2.14 0 3.26-1.4 1.12-1.4 1.12-4.13 0-2.69-1.12-4.11-1.12-1.42-3.22-1.42t-3.24 1.42q-1.14 1.42-1.14 4.11 0 2.73 1.12 4.13t3.22 1.4zm19.95 3.4q-2.55 0-4.5-1.09-1.94-1.08-2.99-3.08-1.05-1.99-1.05-4.65t1.1-4.71q1.11-2.05 3.1-3.17 2-1.12 4.59-1.12 1.36 0 2.74.39 1.39.38 2.44 1.05 1.12.73 1.12 1.85 0 .77-.37 1.25-.37.47-.97.47-.38 0-.8-.18-.42-.17-.84-.42-.77-.45-1.47-.71-.7-.27-1.61-.27-2.17 0-3.34 1.42t-1.17 4.08q0 2.62 1.17 4.04t3.34 1.42q.88 0 1.56-.26.68-.27 1.52-.72.53-.32.91-.47.39-.16.77-.16.56 0 .95.49.38.49.38 1.22 0 .6-.26 1.04-.26.43-.86.78-1.08.7-2.52 1.11-1.43.4-2.94.4zm24.71-3.68q.7.67.7 1.51 0 .8-.58 1.43-.58.64-1.34.64-.78 0-1.44-.64l-8.19-7.42v5.99q0 1.01-.63 1.54t-1.58.53q-.94 0-1.55-.53-.61-.53-.61-1.54v-20.9q0-1.01.61-1.54.61-.52 1.55-.52.95 0 1.58.52.63.53.63 1.54v13.16l7.49-7.17q.63-.63 1.43-.63.81 0 1.4.59.6.6.6 1.4 0 .81-.66 1.47l-5.5 5.11 6.09 5.46zm16.83-1.29q.6 0 .97.45.36.46.36 1.23 0 1.08-1.29 1.82-1.19.66-2.7 1.07-1.5.4-2.87.4-4.13 0-6.54-2.38t-2.41-6.51q0-2.63 1.04-4.66 1.05-2.03 2.96-3.15t4.32-1.12q2.31 0 4.03 1.02 1.71 1.01 2.66 2.87.94 1.85.94 4.37 0 1.51-1.33 1.51h-10.32q.21 2.41 1.36 3.55 1.16 1.14 3.37 1.14 1.11 0 1.97-.28.86-.28 1.94-.77 1.06-.56 1.54-.56zm-6.05-9.77q-1.79 0-2.85 1.12-1.07 1.12-1.28 3.22h7.91q-.07-2.13-1.05-3.23-.98-1.11-2.73-1.11zm20.65-3.01q.91-.07 1.43.39.53.45.53 1.36 0 .95-.45 1.4-.46.46-1.65.6l-1.05.1q-2.07.21-3.03 1.4t-.96 2.98v7.35q0 1.01-.63 1.56-.63.54-1.58.54-.94 0-1.55-.54-.61-.55-.61-1.56v-13.55q0-.98.61-1.5.61-.53 1.52-.53t1.47.51q.56.51.56 1.45v1.4q.66-1.54 1.98-2.38 1.31-.84 2.92-.94l.49-.04z" data-gra="path-name" class="tp-name"/></g><mask id="e"><g fill="#fff"><path stroke-width="2" class="image-rect" d="M0 0h75v85.993H0z"/><svg width="75" height="85.993" class="image-svg-svg primary" style="overflow:visible" filter="url(#d)"><svg xmlns="http://www.w3.org/2000/svg" viewBox="12.226 0 166.804 191.254"><path d="M162.929 66.612a6 6 0 1 0-6.35 10.183c6.544 4.081 10.45 11.121 10.45 18.833s-3.906 14.752-10.45 18.833l-98.417 61.365c-6.943 4.329-15.359 4.542-22.512.573-7.154-3.97-11.425-11.225-11.425-19.406V34.262c0-8.181 4.271-15.436 11.425-19.406 7.153-3.969 15.569-3.756 22.512.573l57.292 35.723a6 6 0 1 0 6.35-10.183L64.512 5.247c-10.696-6.669-23.661-7-34.685-.883-11.021 6.116-17.601 17.293-17.601 29.898v122.73c0 12.605 6.58 23.782 17.602 29.898 5.25 2.913 10.939 4.364 16.616 4.364 6.241 0 12.467-1.754 18.068-5.247l98.417-61.365c10.082-6.287 16.101-17.133 16.101-29.015s-6.019-22.728-16.101-29.015z"/></svg></svg></g><g stroke="#000" stroke-width="6" stroke-linejoin="round"><path d="M-125.845 40.464q2.14.59 3.31 2.17 1.17 1.57 1.17 3.85 0 3.15-2.26 4.93-2.25 1.79-6.21 1.79h-9.03q-1.01 0-1.59-.56-.58-.56-.58-1.58v-20.4q0-1.02.58-1.58t1.59-.56h8.68q3.85 0 6.04 1.7t2.19 4.74q0 1.96-1.04 3.4-1.03 1.43-2.85 2.1zm-10.78-8.44v6.9h5.71q4.65 0 4.65-3.47 0-1.75-1.15-2.59-1.16-.84-3.5-.84h-5.71zm6.3 17.68q2.45 0 3.57-.88 1.12-.87 1.12-2.73 0-1.85-1.14-2.76-1.13-.91-3.55-.91h-6.3v7.28h6.3zm20.61 3.78q-2.62 0-4.6-1.09-1.97-1.08-3.06-3.11t-1.09-4.73q0-2.69 1.09-4.7 1.09-2.02 3.06-3.1 1.98-1.09 4.6-1.09 2.63 0 4.61 1.09 1.97 1.08 3.04 3.1 1.07 2.01 1.07 4.7 0 2.7-1.07 4.73-1.07 2.03-3.04 3.11-1.98 1.09-4.61 1.09zm-.03-3.4q2.14 0 3.25-1.4 1.13-1.4 1.13-4.13 0-2.69-1.13-4.11-1.11-1.42-3.22-1.42-2.09 0-3.23 1.42-1.14 1.42-1.14 4.11 0 2.73 1.12 4.13t3.22 1.4zm21.14.07q1.75.11 1.75 1.58 0 .84-.68 1.28-.68.44-1.94.37l-.95-.07q-5.88-.43-5.88-6.31v-7.63h-1.75q-.94 0-1.45-.42t-.51-1.22q0-.81.51-1.23.51-.42 1.45-.42h1.75v-3.22q0-.94.6-1.5.59-.56 1.61-.56.98 0 1.57.56.6.56.6 1.5v3.22h2.97q.95 0 1.45.42.51.42.51 1.23 0 .8-.51 1.22-.5.42-1.45.42h-2.97v7.95q0 2.59 2.38 2.76l.94.07zm19.6-9.69q2.14.59 3.31 2.17 1.17 1.57 1.17 3.85 0 3.15-2.26 4.93-2.25 1.79-6.21 1.79h-9.03q-1.01 0-1.59-.56-.58-.56-.58-1.58v-20.4q0-1.02.58-1.58t1.59-.56h8.68q3.85 0 6.04 1.7t2.19 4.74q0 1.96-1.04 3.4-1.03 1.43-2.85 2.1zm-10.78-8.44v6.9h5.71q4.65 0 4.65-3.47 0-1.75-1.15-2.59-1.16-.84-3.5-.84h-5.71zm6.3 17.68q2.45 0 3.57-.88 1.12-.87 1.12-2.73 0-1.85-1.14-2.76-1.13-.91-3.55-.91h-6.3v7.28h6.3zm14.98 3.71q-.94 0-1.56-.54-.61-.55-.61-1.56v-20.9q0-1.01.61-1.54.62-.52 1.56-.52.95 0 1.58.52.63.53.63 1.54v20.9q0 1.01-.63 1.56-.63.54-1.58.54zm14.53.07q-2.63 0-4.61-1.09-1.97-1.08-3.06-3.11-1.08-2.03-1.08-4.73 0-2.69 1.08-4.7 1.09-2.02 3.06-3.1 1.98-1.09 4.61-1.09 2.62 0 4.6 1.09 1.98 1.08 3.04 3.1 1.07 2.01 1.07 4.7 0 2.7-1.07 4.73-1.06 2.03-3.04 3.11-1.98 1.09-4.6 1.09zm-.04-3.4q2.14 0 3.26-1.4 1.12-1.4 1.12-4.13 0-2.69-1.12-4.11-1.12-1.42-3.22-1.42t-3.24 1.42q-1.14 1.42-1.14 4.11 0 2.73 1.12 4.13t3.22 1.4zm19.95 3.4q-2.55 0-4.5-1.09-1.94-1.08-2.99-3.08-1.05-1.99-1.05-4.65t1.1-4.71q1.11-2.05 3.1-3.17 2-1.12 4.59-1.12 1.36 0 2.74.39 1.39.38 2.44 1.05 1.12.73 1.12 1.85 0 .77-.37 1.25-.37.47-.97.47-.38 0-.8-.18-.42-.17-.84-.42-.77-.45-1.47-.71-.7-.27-1.61-.27-2.17 0-3.34 1.42t-1.17 4.08q0 2.62 1.17 4.04t3.34 1.42q.88 0 1.56-.26.68-.27 1.52-.72.53-.32.91-.47.39-.16.77-.16.56 0 .95.49.38.49.38 1.22 0 .6-.26 1.04-.26.43-.86.78-1.08.7-2.52 1.11-1.43.4-2.94.4zm24.71-3.68q.7.67.7 1.51 0 .8-.58 1.43-.58.64-1.34.64-.78 0-1.44-.64l-8.19-7.42v5.99q0 1.01-.63 1.54t-1.58.53q-.94 0-1.55-.53-.61-.53-.61-1.54v-20.9q0-1.01.61-1.54.61-.52 1.55-.52.95 0 1.58.52.63.53.63 1.54v13.16l7.49-7.17q.63-.63 1.43-.63.81 0 1.4.59.6.6.6 1.4 0 .81-.66 1.47l-5.5 5.11 6.09 5.46zm16.83-1.29q.6 0 .97.45.36.46.36 1.23 0 1.08-1.29 1.82-1.19.66-2.7 1.07-1.5.4-2.87.4-4.13 0-6.54-2.38t-2.41-6.51q0-2.63 1.04-4.66 1.05-2.03 2.96-3.15t4.32-1.12q2.31 0 4.03 1.02 1.71 1.01 2.66 2.87.94 1.85.94 4.37 0 1.51-1.33 1.51H7.295q.21 2.41 1.36 3.55 1.16 1.14 3.37 1.14 1.11 0 1.97-.28.86-.28 1.94-.77 1.06-.56 1.54-.56zm-6.05-9.77q-1.79 0-2.85 1.12-1.07 1.12-1.28 3.22h7.91q-.07-2.13-1.05-3.23-.98-1.11-2.73-1.11zm20.65-3.01q.91-.07 1.43.39.53.45.53 1.36 0 .95-.45 1.4-.46.46-1.65.6l-1.05.1q-2.07.21-3.03 1.4t-.96 2.98v7.35q0 1.01-.63 1.56-.63.54-1.58.54-.94 0-1.55-.54-.61-.55-.61-1.56v-13.55q0-.98.61-1.5.61-.53 1.52-.53t1.47.51q.56.51.56 1.45v1.4q.66-1.54 1.98-2.38 1.31-.84 2.92-.94l.49-.04z" data-gra="path-name" class="tp-name"/></g></mask><defs><linearGradient x1="0" y1="1" x2="0" y2="0" id="c"><stop offset="0%" stop-color="#ff0844"/><stop offset="100%" stop-color="#ffb199"/></linearGradient><filter id="f" filterUnits="userSpaceOnUse"><feColorMatrix values="0 0 0 0 0.99609375 0 0 0 0 0.99609375 0 0 0 0 0.99609375 0 0 0 1 0"/></filter></defs><mask id="a"><g mask="url(#e)" filter="url(#f)"><path fill="#333" fill-opacity="0" stroke-width="2" class="image-rect" d="M0 0h75v85.993H0z"/><svg width="75" height="85.993" class="image-svg-svg primary" style="overflow:visible"><svg xmlns="http://www.w3.org/2000/svg" viewBox="12.226 0 166.804 191.254"><path d="M162.929 66.612a6 6 0 1 0-6.35 10.183c6.544 4.081 10.45 11.121 10.45 18.833s-3.906 14.752-10.45 18.833l-98.417 61.365c-6.943 4.329-15.359 4.542-22.512.573-7.154-3.97-11.425-11.225-11.425-19.406V34.262c0-8.181 4.271-15.436 11.425-19.406 7.153-3.969 15.569-3.756 22.512.573l57.292 35.723a6 6 0 1 0 6.35-10.183L64.512 5.247c-10.696-6.669-23.661-7-34.685-.883-11.021 6.116-17.601 17.293-17.601 29.898v122.73c0 12.605 6.58 23.782 17.602 29.898 5.25 2.913 10.939 4.364 16.616 4.364 6.241 0 12.467-1.754 18.068-5.247l98.417-61.365c10.082-6.287 16.101-17.133 16.101-29.015s-6.019-22.728-16.101-29.015z"/></svg></svg></g></mask></svg>